HIERARCHY
ROOT Hips
{
	OFFSET 0.000000 0.000000 0.000000
	CHANNELS 6 Xposition Yposition Zposition Zrotation Yrotation Xrotation 
	JOINT LeftUpLeg_virtual
	{
		OFFSET 0.000000 0.000000 0.000000
		CHANNELS 3 Zrotation Yrotation Xrotation
		JOINT LeftUpLeg
		{
			OFFSET 8.479694 -4.795517 -0.379053
			CHANNELS 3 Zrotation Yrotation Xrotation
			JOINT LeftLeg
			{
				OFFSET 0.485052 -32.551468 0.112863
				CHANNELS 3 Zrotation Yrotation Xrotation
				JOINT LeftFoot
				{
					OFFSET 0.438033 -32.635670 -3.012641
					CHANNELS 3 Zrotation Yrotation Xrotation
					JOINT LeftToeBase
					{
						OFFSET 0.970169 -13.225353 11.864223
						CHANNELS 3 Zrotation Yrotation Xrotation
						End Site
						{
							OFFSET 0.000000 0.000000 0.000000
						}
					}
				}
			}
		}
	}
	JOINT RightUpLeg_virtual
	{
		OFFSET 0.000000 0.000000 0.000000
		CHANNELS 3 Zrotation Yrotation Xrotation
		JOINT RightUpLeg
		{
			OFFSET -8.479694 -4.795517 -0.379053
			CHANNELS 3 Zrotation Yrotation Xrotation
			JOINT RightLeg
			{
				OFFSET -0.484100 -32.551483 0.112903
				CHANNELS 3 Zrotation Yrotation Xrotation
				JOINT RightFoot
				{
					OFFSET -0.438985 -32.635651 -3.012681
					CHANNELS 3 Zrotation Yrotation Xrotation
					JOINT RightToeBase
					{
						OFFSET -0.970169 -13.225354 11.864223
						CHANNELS 3 Zrotation Yrotation Xrotation
						End Site
						{
							OFFSET 0.000000 0.000000 0.000000
						}
					}
				}
			}
		}
	}
	JOINT Spine_virtual
	{
		OFFSET 0.000000 0.000000 0.000000
		CHANNELS 3 Zrotation Yrotation Xrotation
		JOINT Spine
		{
			OFFSET 0.000000 7.722015 1.166203
			CHANNELS 3 Zrotation Yrotation Xrotation
			JOINT Spine1
			{
				OFFSET 0.000000 12.024086 0.248766
				CHANNELS 3 Zrotation Yrotation Xrotation
				JOINT Spine2
				{
					OFFSET -0.000000 11.503036 -0.491240
					CHANNELS 3 Zrotation Yrotation Xrotation
					JOINT Neck_virtual
					{
						OFFSET 0.000000 0.000000 0.000000
						CHANNELS 3 Zrotation Yrotation Xrotation
						JOINT Neck
						{
							OFFSET 0.000000 18.430687 -3.123054
							CHANNELS 3 Zrotation Yrotation Xrotation
							JOINT Head
							{
								OFFSET -0.000000 9.051071 1.034021
								CHANNELS 3 Zrotation Yrotation Xrotation
								End Site
								{
									OFFSET 0.000000 0.000000 0.000000
								}
							}
						}
					}
					JOINT LeftShoulder_virtual
					{
						OFFSET 0.000000 0.000000 0.000000
						CHANNELS 3 Zrotation Yrotation Xrotation
						JOINT LeftShoulder
						{
							OFFSET 6.197824 13.665230 -4.064723
							CHANNELS 3 Zrotation Yrotation Xrotation
							JOINT LeftArm
							{
								OFFSET 7.778132 -0.187073 -1.709282
								CHANNELS 3 Zrotation Yrotation Xrotation
								JOINT LeftForeArm
								{
									OFFSET 21.954697 0.000000 -2.041093
									CHANNELS 3 Zrotation Yrotation Xrotation
									JOINT LeftHand
									{
										OFFSET 22.992908 0.000000 -0.870901
										CHANNELS 3 Zrotation Yrotation Xrotation
										End Site
										{
											OFFSET 0.000000 0.000000 0.000000
										}
									}
								}
							}
						}
					}
					JOINT RightShoulder_virtual
					{
						OFFSET 0.000000 0.000000 0.000000
						CHANNELS 3 Zrotation Yrotation Xrotation
						JOINT RightShoulder
						{
							OFFSET -6.197824 13.665230 -4.064723
							CHANNELS 3 Zrotation Yrotation Xrotation
							JOINT RightArm
							{
								OFFSET -7.778132 -0.187073 -1.709282
								CHANNELS 3 Zrotation Yrotation Xrotation
								JOINT RightForeArm
								{
									OFFSET -21.954697 0.000000 -2.041093
									CHANNELS 3 Zrotation Yrotation Xrotation
									JOINT RightHand
									{
										OFFSET -22.992908 0.000000 -0.870901
										CHANNELS 3 Zrotation Yrotation Xrotation
										End Site
										{
											OFFSET 0.000000 0.000000 0.000000
										}
									}
								}
							}
						}
					}
				}
			}
		}
	}
}
MOTION
Frames: 5
Frame Time: 0.033333
-3.973835 58.807568 8.382112 -179.414016 6.666963 -179.596587 2.425079 -7.395475 -13.158207 -11.103021 6.843137 -59.654831 14.004318 1.073017 73.282718 -8.159546 -22.613877 -8.205549 0.000000 0.000000 0.000000 1.945285 -3.609398 -9.743514 13.778148 4.071794 -68.303709 -3.050898 -3.227220 84.091383 -7.493132 9.753705 -3.811855 0.000000 0.000000 0.000000 -0.709415 0.565098 -9.999188 -2.259520 -1.896706 6.928117 -1.083002 -1.370321 9.010754 -0.017040 0.004710 0.035388 -1.759258 -1.092450 11.992835 -3.952476 3.951989 -17.511490 0.000000 0.000000 0.000000 1.034706 -0.443720 7.998894 -4.229839 -12.218586 12.422718 -37.553575 -34.161362 17.751511 -24.522334 -85.189808 45.509523 0.000000 0.000000 0.000000 -4.087189 1.441325 7.656662 33.050599 23.595008 17.730071 30.344686 38.767478 0.106596 -44.485329 83.284690 -48.182535 0.000000 0.000000 0.000000 
-4.043820 59.002750 8.179985 -179.471867 6.643997 -179.601122 2.102936 -7.236337 -12.077026 -11.052758 6.531572 -60.311069 13.680444 1.301932 73.072697 -7.815698 -22.301459 -8.367628 0.000000 0.000000 0.000000 1.963781 -3.237852 -8.711323 13.151817 3.722515 -69.095683 -4.193543 -3.627353 84.170163 -5.933346 9.808699 -4.531792 0.000000 0.000000 0.000000 -0.823770 0.789748 -9.094587 -1.918436 -2.059744 7.680484 -1.214253 -1.193482 9.185185 -0.068948 0.044979 0.000002 -2.044984 -1.028130 12.066809 -4.381384 2.856897 -19.332099 0.000000 0.000000 0.000000 0.920710 -0.275919 8.252132 -4.075065 -11.840950 12.309039 -37.641357 -34.749475 14.695512 -9.905866 -80.741524 29.664068 0.000000 0.000000 0.000000 -4.117410 1.577610 7.906340 33.169485 22.956281 17.060014 30.942307 39.517077 0.668305 -21.325503 77.570581 -24.530191 0.000000 0.000000 0.000000 
-4.096242 59.209106 7.972688 -179.449751 6.502064 -179.590576 1.847129 -7.050461 -11.057960 -10.990457 6.204502 -60.964247 13.364301 1.571727 72.803082 -7.553327 -22.045137 -8.454610 0.000000 0.000000 0.000000 2.000077 -2.885678 -7.690161 12.931870 3.194892 -69.716711 -4.389421 -3.680190 84.056836 -5.492977 9.827961 -5.423881 0.000000 0.000000 0.000000 -0.865353 1.002257 -8.063565 -1.599097 -2.157355 8.384976 -1.313904 -0.997292 9.325979 -0.061999 0.117518 -0.000042 -2.139732 -0.883457 12.018181 -4.563235 1.991452 -20.807510 0.000000 0.000000 0.000000 0.859081 -0.212868 8.248442 -4.069013 -11.611340 12.195674 -37.824109 -35.344504 11.847571 -5.139634 -76.311737 23.681905 0.000000 0.000000 0.000000 -4.166384 1.674577 7.936345 33.168976 22.399235 16.481229 31.316950 40.036769 1.179200 -13.979622 71.461469 -16.767875 0.000000 0.000000 0.000000 
-4.110703 59.381275 7.755979 -179.412855 6.211142 -179.607624 1.628878 -6.905132 -10.076899 -10.859045 5.740317 -61.551179 13.077822 1.849869 72.606571 -7.338441 -21.808316 -8.568465 0.000000 0.000000 0.000000 1.139476 -2.803868 -6.754531 13.390403 2.860644 -70.119576 -4.080175 -4.071739 85.134613 -6.665125 8.847201 -4.255116 0.000000 0.000000 0.000000 -0.880904 1.162819 -6.880471 -1.362501 -2.230023 9.088779 -1.369172 -0.877315 9.311512 -0.093896 0.114298 0.002352 -2.159311 -0.778986 11.856273 -4.685861 1.241248 -22.028827 0.000000 0.000000 0.000000 0.777428 -0.130065 8.210670 -4.026405 -11.568685 12.052483 -37.945710 -35.941145 9.212978 -3.167926 -72.512355 20.541871 0.000000 0.000000 0.000000 -4.126418 1.740117 7.903151 32.952517 21.929823 15.810182 31.734343 40.361384 1.807137 -10.795124 65.898198 -13.197046 0.000000 0.000000 0.000000 
-4.074565 59.515461 7.558535 -179.287466 5.997010 -179.663044 1.501961 -6.777775 -9.094551 -10.615789 5.116782 -62.103085 12.824416 2.027795 72.529246 -7.092225 -21.523857 -8.749891 0.000000 0.000000 0.000000 0.444073 -2.755494 -5.874932 13.835284 2.426472 -70.572322 -4.239503 -4.682753 85.776118 -6.395658 8.069159 -3.173479 0.000000 0.000000 0.000000 -0.850981 1.175044 -5.628984 -1.226325 -2.286111 9.804601 -1.386057 -0.779514 9.301762 -0.133173 0.095042 0.021041 -2.156108 -0.704941 11.558695 -4.695249 0.645283 -23.059342 0.000000 0.000000 0.000000 0.747112 -0.014179 7.975105 -3.967402 -11.595512 11.878317 -38.077751 -36.364364 6.852117 -2.296355 -69.656721 18.568773 0.000000 0.000000 0.000000 -4.079952 1.887347 7.749247 32.538205 21.536497 15.165771 31.977252 40.749254 2.226375 -9.278589 61.285730 -11.408601 0.000000 0.000000 0.000000 
